<svg xmlns="http://www.w3.org/2000/svg" viewBox="0 0 200 360" width="200" height="360">
  <g fill="none" stroke-linecap="round" stroke-linejoin="round">
    <rect x="68" y="48" width="64" height="58" rx="8" ry="8" stroke="#0369a1" stroke-width="4" fill="#bae6fd" transform="rotate(-3 100 77)"/>
    <path d="M62 52 L58 38 L70 44 L78 28 L86 46 L96 30 L104 48 L114 32 L122 48 L130 36 L138 50 L150 42 L146 58" stroke="#0c4a6e" stroke-width="3.5" fill="none"/>
    <rect x="78" y="68" width="10" height="8" rx="2" fill="#0c4a6e" stroke="#0c4a6e" stroke-width="1"/>
    <rect x="112" y="68" width="10" height="8" rx="2" fill="#0c4a6e" stroke="#0c4a6e" stroke-width="1"/>
    <path d="M88 88 L112 88 L108 96 L92 96 Z" fill="#f97316" stroke="#c2410c" stroke-width="2"/>
    <path d="M100 106 L92 140 L72 148 L88 156 L100 152 L100 175" stroke="#0284c7" stroke-width="4.5" fill="none"/>
    <path d="M100 106 L108 140 L128 146 L112 156 L100 152 L100 175" stroke="#0369a1" stroke-width="4.5" fill="none"/>
    <path d="M100 175 L78 230 L70 300 L88 348 L112 348 L132 300 L122 230 L100 175" stroke="#ca8a04" stroke-width="4.8" fill="#fef9c3" opacity="0.95"/>
    <path d="M88 220 L112 228 L100 260" stroke="#a16207" stroke-width="3" fill="none"/>
    <ellipse cx="100" cy="340" rx="36" ry="8" fill="#fde68a" opacity="0.5"/>
    <text x="100" y="42" font-family="Comic Sans MS, cursive" font-size="14" fill="#0c4a6e" text-anchor="middle" transform="rotate(5 100 42)">D`</text>
  </g>
</svg>
