<svg xmlns="http://www.w3.org/2000/svg" viewBox="0 0 320 400" width="320" height="400">
  <defs>
    <linearGradient id="sky" x1="0%" y1="0%" x2="0%" y2="100%">
      <stop offset="0%" style="stop-color:#e0f2fe;stop-opacity:0.9"/>
      <stop offset="100%" style="stop-color:#fefce8;stop-opacity:0.6"/>
    </linearGradient>
    <linearGradient id="robe" x1="0%" y1="0%" x2="100%" y2="100%">
      <stop offset="0%" style="stop-color:#f8fafc"/>
      <stop offset="100%" style="stop-color:#cbd5e1"/>
    </linearGradient>
  </defs>
  <ellipse cx="160" cy="55" rx="120" ry="45" fill="url(#sky)" opacity="0.85"/>
  <ellipse cx="160" cy="72" rx="52" ry="14" fill="none" stroke="#fde047" stroke-width="4" opacity="0.85"/>
  <ellipse cx="160" cy="72" rx="58" ry="18" fill="none" stroke="#fef08a" stroke-width="2" opacity="0.5"/>
  <ellipse cx="160" cy="118" rx="22" ry="26" fill="#fcd9b8" stroke="#b45309" stroke-width="2"/>
  <path d="M138 108 Q160 98 182 108" fill="none" stroke="#92400e" stroke-width="2" stroke-linecap="round"/>
  <path d="M152 128 Q160 134 168 128" fill="none" stroke="#92400e" stroke-width="1.5"/>
  <path d="M160 144 L95 380 L225 380 Z" fill="url(#robe)" stroke="#64748b" stroke-width="2" stroke-linejoin="round"/>
  <path d="M160 150 L55 280 L95 300 L160 200 L225 300 L265 280 Z" fill="#e2e8f0" stroke="#64748b" stroke-width="1.8" opacity="0.95"/>
  <ellipse cx="160" cy="380" rx="90" ry="12" fill="#cbd5e1" opacity="0.35"/>
</svg>
