<svg xmlns="http://www.w3.org/2000/svg" viewBox="0 0 480 480" width="480" height="480">
  <defs>
    <style>
      .f{fill:#ff8cc8}.f2{fill:#ffb8dc}.f3{fill:#ffa6d4}.o{fill:#5c2d44}.w{fill:#fff8fc}
    </style>
  </defs>
  <g id="c">
    <ellipse class="f" cx="40" cy="40" rx="18" ry="16"/><polygon class="f" points="22,28 26,14 32,26"/><polygon class="f" points="48,26 54,12 58,26"/><circle class="o" cx="34" cy="38" r="2"/><circle class="o" cx="46" cy="38" r="2"/><path class="o" fill="none" stroke="#5c2d44" stroke-width="1.5" d="M34 46 Q40 50 46 46"/>
    <ellipse class="f2" cx="120" cy="32" rx="14" ry="13"/><polygon class="f2" points="106,24 110,12 114,22"/><polygon class="f2" points="126,22 132,10 136,22"/><circle class="o" cx="115" cy="31" r="1.8"/><circle class="o" cx="125" cy="31" r="1.8"/>
    <ellipse class="f3" cx="200" cy="48" rx="20" ry="17"/><polygon class="f3" points="180,36 186,18 192,34"/><polygon class="f3" points="208,34 216,16 222,34"/><circle class="o" cx="192" cy="46" r="2.2"/><circle class="o" cx="208" cy="46" r="2.2"/><ellipse class="w" cx="200" cy="56" rx="4" ry="2"/>
    <ellipse class="f" cx="280" cy="36" rx="16" ry="15"/><polygon class="f" points="264,26 268,14 274,24"/><polygon class="f" points="286,24 292,12 296,24"/><circle class="o" cx="274" cy="34" r="2"/><circle class="o" cx="286" cy="34" r="2"/>
    <ellipse class="f2" cx="360" cy="44" rx="19" ry="16"/><polygon class="f2" points="342,30 348,14 354,28"/><polygon class="f2" points="368,28 376,12 382,28"/><circle class="o" cx="352" cy="42" r="2"/><circle class="o" cx="368" cy="42" r="2"/>
    <ellipse class="f3" cx="440" cy="38" rx="15" ry="14"/><polygon class="f3" points="426,28 430,16 434,26"/><polygon class="f3" points="446,26 452,14 456,26"/><circle class="o" cx="434" cy="36" r="1.8"/><circle class="o" cx="446" cy="36" r="1.8"/>
    <ellipse class="f" cx="72" cy="120" rx="17" ry="15"/><polygon class="f" points="56,108 60,94 66,106"/><polygon class="f" points="82,106 90,92 96,106"/><circle class="o" cx="66" cy="118" r="2"/><circle class="o" cx="80" cy="118" r="2"/>
    <ellipse class="f2" cx="160" cy="108" rx="14" ry="13"/><polygon class="f2" points="146,98 150,86 154,96"/><polygon class="f2" points="166,96 172,84 176,96"/><circle class="o" cx="154" cy="106" r="1.8"/><circle class="o" cx="166" cy="106" r="1.8"/>
    <ellipse class="f3" cx="248" cy="124" rx="21" ry="18"/><polygon class="f3" points="226,110 232,90 240,108"/><polygon class="f3" points="256,108 266,88 274,108"/><circle class="o" cx="238" cy="122" r="2.2"/><circle class="o" cx="258" cy="122" r="2.2"/>
    <ellipse class="f" cx="328" cy="112" rx="16" ry="14"/><polygon class="f" points="312,102 316,88 322,100"/><polygon class="f" points="334,100 340,86 346,100"/><circle class="o" cx="322" cy="110" r="2"/><circle class="o" cx="336" cy="110" r="2"/>
    <ellipse class="f2" cx="408" cy="128" rx="18" ry="16"/><polygon class="f2" points="390,114 396,96 402,112"/><polygon class="f2" points="416,112 424,94 432,112"/><circle class="o" cx="402" cy="126" r="2"/><circle class="o" cx="418" cy="126" r="2"/>
    <ellipse class="f3" cx="48" cy="200" rx="15" ry="14"/><polygon class="f3" points="34,190 38,178 42,188"/><polygon class="f3" points="54,188 60,176 64,188"/><circle class="o" cx="42" cy="198" r="1.8"/><circle class="o" cx="54" cy="198" r="1.8"/>
    <ellipse class="f" cx="136" cy="192" rx="20" ry="17"/><polygon class="f" points="116,178 122,158 130,176"/><polygon class="f" points="146,176 154,156 162,176"/><circle class="o" cx="128" cy="190" r="2.2"/><circle class="o" cx="146" cy="190" r="2.2"/>
    <ellipse class="f2" cx="224" cy="208" rx="14" ry="13"/><polygon class="f2" points="210,198 214,186 218,196"/><polygon class="f2" points="230,196 236,184 240,196"/><circle class="o" cx="218" cy="206" r="1.8"/><circle class="o" cx="230" cy="206" r="1.8"/>
    <ellipse class="f3" cx="304" cy="196" rx="19" ry="16"/><polygon class="f3" points="286,182 292,164 298,180"/><polygon class="f3" points="314,180 322,162 330,180"/><circle class="o" cx="296" cy="194" r="2"/><circle class="o" cx="314" cy="194" r="2"/>
    <ellipse class="f" cx="392" cy="212" rx="16" ry="15"/><polygon class="f" points="376,200 380,186 386,198"/><polygon class="f" points="402,198 408,184 412,198"/><circle class="o" cx="386" cy="210" r="2"/><circle class="o" cx="400" cy="210" r="2"/>
    <ellipse class="f2" cx="472" cy="200" rx="12" ry="11"/><polygon class="f2" points="462,192 465,182 468,190"/><polygon class="f2" points="476,190 480,180 480,190"/><circle class="o" cx="468" cy="198" r="1.5"/><circle class="o" cx="476" cy="198" r="1.5"/>
    <ellipse class="f3" cx="88" cy="280" rx="18" ry="16"/><polygon class="f3" points="70,266 76,248 82,264"/><polygon class="f3" points="96,264 104,246 110,264"/><circle class="o" cx="80" cy="278" r="2"/><circle class="o" cx="96" cy="278" r="2"/>
    <ellipse class="f" cx="176" cy="268" rx="15" ry="14"/><polygon class="f" points="162,258 166,246 170,256"/><polygon class="f" points="184,256 190,244 194,256"/><circle class="o" cx="170" cy="266" r="1.8"/><circle class="o" cx="182" cy="266" r="1.8"/>
    <ellipse class="f2" cx="264" cy="284" rx="21" ry="18"/><polygon class="f2" points="244,268 250,246 258,266"/><polygon class="f2" points="276,266 286,244 296,266"/><circle class="o" cx="256" cy="282" r="2.2"/><circle class="o" cx="276" cy="282" r="2.2"/>
    <ellipse class="f3" cx="352" cy="272" rx="14" ry="13"/><polygon class="f3" points="338,262 342,250 346,260"/><polygon class="f3" points="360,260 366,248 370,260"/><circle class="o" cx="346" cy="270" r="1.8"/><circle class="o" cx="358" cy="270" r="1.8"/>
    <ellipse class="f" cx="432" cy="288" rx="17" ry="15"/><polygon class="f" points="416,276 420,262 426,274"/><polygon class="f" points="442,274 450,260 456,274"/><circle class="o" cx="426" cy="286" r="2"/><circle class="o" cx="440" cy="286" r="2"/>
    <ellipse class="f2" cx="56" cy="360" rx="19" ry="17"/><polygon class="f2" points="36,344 42,324 50,342"/><polygon class="f2" points="66,342 76,322 86,342"/><circle class="o" cx="48" cy="358" r="2"/><circle class="o" cx="66" cy="358" r="2"/>
    <ellipse class="f3" cx="144" cy="348" rx="13" ry="12"/><polygon class="f3" points="132,340 135,330 138,338"/><polygon class="f3" points="152,338 156,328 158,338"/><circle class="o" cx="138" cy="346" r="1.6"/><circle class="o" cx="150" cy="346" r="1.6"/>
    <ellipse class="f" cx="232" cy="364" rx="20" ry="17"/><polygon class="f" points="212,348 218,328 226,346"/><polygon class="f" points="244,346 254,326 264,346"/><circle class="o" cx="224" cy="362" r="2.2"/><circle class="o" cx="242" cy="362" r="2.2"/>
    <ellipse class="f2" cx="320" cy="352" rx="16" ry="15"/><polygon class="f2" points="304,342 308,328 314,340"/><polygon class="f2" points="330,340 336,326 342,340"/><circle class="o" cx="312" cy="350" r="2"/><circle class="o" cx="328" cy="350" r="2"/>
    <ellipse class="f3" cx="400" cy="368" rx="18" ry="16"/><polygon class="f3" points="382,354 388,336 394,352"/><polygon class="f3" points="412,352 420,334 428,352"/><circle class="o" cx="392" cy="366" r="2"/><circle class="o" cx="410" cy="366" r="2"/>
    <ellipse class="f" cx="472" cy="344" rx="14" ry="13"/><polygon class="f" points="460,334 463,324 466,332"/><polygon class="f" points="478,332 480,322 480,332"/><circle class="o" cx="468" cy="342" r="1.8"/><circle class="o" cx="478" cy="342" r="1.8"/>
    <ellipse class="f2" cx="104" cy="432" rx="17" ry="15"/><polygon class="f2" points="88,420 92,406 98,418"/><polygon class="f2" points="114,418 120,404 126,418"/><circle class="o" cx="98" cy="430" r="2"/><circle class="o" cx="112" cy="430" r="2"/>
    <ellipse class="f3" cx="192" cy="420" rx="15" ry="14"/><polygon class="f3" points="178,410 182,398 186,408"/><polygon class="f3" points="200,408 206,396 210,408"/><circle class="o" cx="186" cy="418" r="1.8"/><circle class="o" cx="198" cy="418" r="1.8"/>
    <ellipse class="f" cx="280" cy="436" rx="22" ry="19"/><polygon class="f" points="258,418 264,396 272,416"/><polygon class="f" points="288,416 300,392 310,416"/><circle class="o" cx="270" cy="434" r="2.3"/><circle class="o" cx="292" cy="434" r="2.3"/>
    <ellipse class="f2" cx="368" cy="424" rx="14" ry="13"/><polygon class="f2" points="354,414 358,402 362,412"/><polygon class="f2" points="376,412 382,400 386,412"/><circle class="o" cx="362" cy="422" r="1.8"/><circle class="o" cx="374" cy="422" r="1.8"/>
    <ellipse class="f3" cx="448" cy="440" rx="16" ry="14"/><polygon class="f3" points="432,428 436,414 442,426"/><polygon class="f3" points="456,426 462,412 468,426"/><circle class="o" cx="442" cy="438" r="2"/><circle class="o" cx="456" cy="438" r="2"/>
  </g>
</svg>
